<svg width="55" height="59" viewBox="0 0 55 59" fill="none" xmlns="http://www.w3.org/2000/svg">
<path id="Ellipse 16" d="M54.1863 15.2474C54.6621 14.9727 54.8265 14.3633 54.536 13.8971C51.6326 9.23831 47.4826 5.47599 42.5475 3.04227C37.3147 0.46172 31.4341 -0.509165 25.6495 0.252396C19.8649 1.01396 14.436 3.47376 10.0493 7.32075C5.66267 11.1677 2.5153 16.2291 1.00521 21.8649C-0.504884 27.5006 -0.309873 33.4576 1.56558 38.9825C3.44104 44.5074 6.9127 49.3521 11.5416 52.9039C16.1704 56.4558 21.7486 58.5553 27.5706 58.9369C33.0614 59.2967 38.5365 58.1134 43.3803 55.5305C43.865 55.2721 44.0273 54.6621 43.7527 54.1863C43.478 53.7106 42.8704 53.5493 42.385 53.8066C37.8825 56.1934 32.7989 57.2858 27.7007 56.9517C22.2713 56.5958 17.0693 54.6379 12.7526 51.3256C8.43595 48.0133 5.19841 43.4953 3.44943 38.343C1.70045 33.1907 1.51859 27.6354 2.92685 22.3798C4.3351 17.1241 7.27022 12.404 11.361 8.81647C15.4519 5.22892 20.5146 2.935 25.9092 2.2248C31.3037 1.5146 36.7877 2.42001 41.6676 4.82654C46.2498 7.08622 50.1062 10.5741 52.812 14.8924C53.1037 15.358 53.7106 15.5221 54.1863 15.2474Z" fill="#FED36A"/>
</svg>
