<svg width="62" height="48" viewBox="0 0 62 48" fill="none" xmlns="http://www.w3.org/2000/svg">
<g id="urgent/bro">
<g id="Coins">
<g id="Group" opacity="0.3">
<path id="Vector" d="M50.0984 16.3799C51.9781 16.1743 53.3353 14.4839 53.1298 12.6041C52.9243 10.7244 51.2338 9.36713 49.354 9.57267C47.4743 9.77821 46.1171 11.4687 46.3226 13.3484C46.5281 15.2282 48.2186 16.5854 50.0984 16.3799Z" stroke="#EB996E" stroke-width="0.376003" stroke-linecap="round" stroke-linejoin="round"/>
<path id="Vector_2" d="M52.2964 14.3656C53.0623 12.9473 52.5334 11.1768 51.1152 10.4109C49.697 9.64502 47.9264 10.1739 47.1605 11.5921C46.3946 13.0103 46.9235 14.7809 48.3417 15.5468C49.7599 16.3127 51.5305 15.7838 52.2964 14.3656Z" stroke="#EB996E" stroke-width="0.376003" stroke-linecap="round" stroke-linejoin="round"/>
<path id="Vector_3" d="M50.9692 13.5622C50.9692 12.5808 49.5772 12.5587 49.5772 12.149C49.5772 11.9336 49.6904 11.8682 49.9224 11.8682C50.1222 11.8682 50.2907 11.9548 50.4831 12.1279L50.9434 11.5985C50.7309 11.3604 50.4441 11.2014 50.1296 11.1474V10.595H49.5229V11.163C49.0027 11.2753 48.6943 11.6464 48.6943 12.1923C48.6943 13.136 50.0872 13.1958 50.0872 13.6276C50.0872 13.8375 49.9786 13.9296 49.7089 13.9296C49.4824 13.9296 49.2559 13.843 48.964 13.6276L48.5654 14.2536C48.8391 14.4798 49.1728 14.6212 49.5256 14.6606V15.2028H50.1305V14.6228C50.6912 14.4893 50.9692 14.0824 50.9692 13.5622Z" stroke="#EB996E" stroke-width="0.376003" stroke-linecap="round" stroke-linejoin="round"/>
</g>
<g id="Group_2" opacity="0.3">
<path id="Vector_4" d="M51.7664 32.7283C52.6288 32.7283 53.3279 32.0292 53.3279 31.1669C53.3279 30.3045 52.6288 29.6054 51.7664 29.6054C50.9041 29.6054 50.205 30.3045 50.205 31.1669C50.205 32.0292 50.9041 32.7283 51.7664 32.7283Z" stroke="#EB996E" stroke-width="0.376003" stroke-linecap="round" stroke-linejoin="round"/>
<path id="Vector_5" d="M52.7074 32.1084C53.2273 31.5885 53.2273 30.7456 52.7074 30.2257C52.1875 29.7058 51.3446 29.7058 50.8247 30.2257C50.3048 30.7456 50.3048 31.5885 50.8247 32.1084C51.3446 32.6283 52.1875 32.6283 52.7074 32.1084Z" stroke="#EB996E" stroke-width="0.376003" stroke-linecap="round" stroke-linejoin="round"/>
<path id="Vector_6" d="M52.3327 31.4339C52.3327 30.9864 51.6974 30.9735 51.6974 30.7894C51.6974 30.6909 51.749 30.6614 51.8548 30.6614C51.9524 30.6663 52.0443 30.7085 52.1117 30.7793L52.3207 30.5381C52.2242 30.4304 52.0946 30.3579 51.9524 30.3318V30.0805H51.6762V30.3392C51.5643 30.3554 51.4626 30.413 51.3911 30.5006C51.3197 30.5883 51.2838 30.6996 51.2905 30.8124C51.2905 31.2433 51.9257 31.2727 51.9257 31.467C51.9257 31.5637 51.876 31.6051 51.7536 31.6051C51.6281 31.5982 51.5085 31.5496 51.4139 31.467L51.2297 31.7533C51.3547 31.8562 51.507 31.9202 51.6679 31.9375V32.1851H51.9441V31.9172C52.0568 31.898 52.1584 31.8382 52.23 31.7492C52.3016 31.6601 52.3381 31.548 52.3327 31.4339Z" stroke="#EB996E" stroke-width="0.376003" stroke-linecap="round" stroke-linejoin="round"/>
</g>
<g id="Group_3" opacity="0.3">
<path id="Vector_7" d="M23.7161 6.35593C25.0526 6.14209 25.9628 4.88528 25.7489 3.54875C25.5351 2.21223 24.2783 1.30211 22.9417 1.51595C21.6052 1.72979 20.6951 2.9866 20.9089 4.32313C21.1228 5.65965 22.3796 6.56976 23.7161 6.35593Z" stroke="#EB996E" stroke-width="0.376003" stroke-linecap="round" stroke-linejoin="round"/>
<path id="Vector_8" d="M25.0929 5.05689C25.711 4.08268 25.4222 2.79193 24.448 2.17392C23.4738 1.55591 22.183 1.84466 21.565 2.81887C20.947 3.79307 21.2358 5.08382 22.21 5.70183C23.1842 6.31984 24.4749 6.03109 25.0929 5.05689Z" stroke="#EB996E" stroke-width="0.376003" stroke-linecap="round" stroke-linejoin="round"/>
<path id="Vector_9" d="M24.217 4.35666C24.217 3.65421 23.2208 3.63856 23.2208 3.34395C23.2208 3.1902 23.3018 3.14325 23.4685 3.14325C23.6211 3.15017 23.7651 3.2162 23.8699 3.32738L24.1976 2.94899C24.0455 2.77828 23.8401 2.66406 23.6149 2.62492V2.23273H23.1822V2.64057C23.0096 2.66828 22.8534 2.75884 22.7436 2.89481C22.6338 3.03079 22.5782 3.20257 22.5874 3.37709C22.5874 4.05285 23.5836 4.0952 23.5836 4.40454C23.5836 4.5546 23.5072 4.62089 23.3138 4.62089C23.1518 4.62089 22.9888 4.55921 22.7808 4.40454L22.4954 4.85013C22.6907 5.01268 22.9296 5.11417 23.1822 5.14198V5.53141H23.6149V5.1162C23.7901 5.08388 23.9477 4.98909 24.0585 4.84943C24.1692 4.70976 24.2255 4.53469 24.217 4.35666Z" stroke="#EB996E" stroke-width="0.376003" stroke-linecap="round" stroke-linejoin="round"/>
</g>
<g id="Group_4" opacity="0.3">
<path id="Vector_10" d="M4.16584 33.1393C5.01705 33.0011 5.59508 32.1991 5.45691 31.3479C5.31874 30.4967 4.51669 29.9186 3.66548 30.0568C2.81428 30.195 2.23625 30.997 2.37442 31.8482C2.51259 32.6994 3.31464 33.2775 4.16584 33.1393Z" stroke="#EB996E" stroke-width="0.376003" stroke-linecap="round" stroke-linejoin="round"/>
<path id="Vector_11" d="M5.24517 31.5987C5.24517 31.3354 5.1671 31.078 5.02082 30.859C4.87453 30.6401 4.66662 30.4695 4.42337 30.3687C4.18011 30.268 3.91244 30.2416 3.6542 30.293C3.39596 30.3443 3.15875 30.4711 2.97257 30.6573C2.78639 30.8435 2.6596 31.0807 2.60824 31.3389C2.55687 31.5972 2.58323 31.8648 2.68399 32.1081C2.78475 32.3514 2.95538 32.5593 3.17431 32.7056C3.39323 32.8518 3.65062 32.9299 3.91392 32.9299C4.26699 32.9299 4.6056 32.7897 4.85526 32.54C5.10492 32.2903 5.24517 31.9517 5.24517 31.5987V31.5987Z" stroke="#EB996E" stroke-width="0.376003" stroke-linecap="round" stroke-linejoin="round"/>
<path id="Vector_12" d="M4.48014 31.8665C4.48014 31.4182 3.84582 31.4062 3.84582 31.2221C3.84582 31.1236 3.89737 31.0941 4.00325 31.0941C4.10057 31.0989 4.19228 31.1411 4.25919 31.212L4.46818 30.9707C4.37191 30.863 4.24222 30.7906 4.09992 30.7654V30.5132H3.82372V30.7728C3.71357 30.7902 3.6138 30.8478 3.54372 30.9346C3.47365 31.0213 3.43826 31.131 3.44441 31.2423C3.44441 31.6723 4.07966 31.7027 4.07966 31.8969C4.07966 31.989 4.03087 32.0341 3.9075 32.0341C3.78214 32.0275 3.66258 31.9792 3.56778 31.8969L3.38365 32.1823C3.50889 32.2847 3.66109 32.3487 3.82188 32.3664V32.6132H4.09807V32.3499C4.20969 32.3296 4.31008 32.2694 4.38042 32.1804C4.45077 32.0914 4.48622 31.9798 4.48014 31.8665V31.8665Z" stroke="#EB996E" stroke-width="0.376003" stroke-linecap="round" stroke-linejoin="round"/>
</g>
<g id="Group_5" opacity="0.3">
<path id="Vector_13" d="M43.0625 40.1354C43.9152 40.0072 44.5026 39.212 44.3744 38.3592C44.2462 37.5065 43.451 36.9191 42.5982 37.0473C41.7454 37.1755 41.1581 37.9708 41.2863 38.8235C41.4145 39.6763 42.2097 40.2637 43.0625 40.1354Z" stroke="#EB996E" stroke-width="0.376003" stroke-linecap="round" stroke-linejoin="round"/>
<path id="Vector_14" d="M44.1601 38.5937C44.1597 38.3305 44.0813 38.0733 43.9348 37.8546C43.7883 37.6359 43.5803 37.4656 43.337 37.3651C43.0937 37.2646 42.8261 37.2385 42.568 37.2901C42.3099 37.3417 42.0728 37.4686 41.8868 37.6549C41.7008 37.8411 41.5742 38.0783 41.523 38.3365C41.4718 38.5947 41.4983 38.8623 41.5991 39.1054C41.6999 39.3486 41.8705 39.5564 42.0894 39.7026C42.3083 39.8488 42.5656 39.9268 42.8288 39.9268C43.0038 39.9269 43.1771 39.8925 43.3388 39.8256C43.5005 39.7586 43.6474 39.6604 43.7711 39.5365C43.8947 39.4127 43.9928 39.2657 44.0595 39.1039C44.1263 38.9421 44.1604 38.7687 44.1601 38.5937V38.5937Z" stroke="#EB996E" stroke-width="0.376003" stroke-linecap="round" stroke-linejoin="round"/>
<path id="Vector_15" d="M43.395 38.8607C43.395 38.4133 42.7607 38.4004 42.7607 38.2163C42.7607 38.1178 42.8122 38.0883 42.9181 38.0883C43.0154 38.0931 43.1072 38.1353 43.1741 38.2062L43.383 37.9649C43.2869 37.8568 43.1572 37.7842 43.0148 37.7587V37.5074H42.7386V37.767C42.6286 37.7844 42.529 37.8419 42.4589 37.9284C42.3889 38.015 42.3534 38.1244 42.3593 38.2356C42.3593 38.6665 42.9945 38.6959 42.9945 38.8911C42.9945 38.9832 42.9457 39.0283 42.8224 39.0283C42.697 39.0217 42.5774 38.9734 42.4827 38.8911L42.2985 39.1765C42.4238 39.2789 42.576 39.3429 42.7368 39.3607V39.6074H43.0129V39.3432C43.1243 39.3228 43.2245 39.2626 43.2947 39.1738C43.365 39.0851 43.4007 38.9738 43.395 38.8607Z" stroke="#EB996E" stroke-width="0.376003" stroke-linecap="round" stroke-linejoin="round"/>
</g>
<g id="Group_6" opacity="0.3">
<path id="Vector_16" d="M11.9475 15.4413C12.8099 15.4413 13.5089 14.7422 13.5089 13.8798C13.5089 13.0175 12.8099 12.3184 11.9475 12.3184C11.0852 12.3184 10.3861 13.0175 10.3861 13.8798C10.3861 14.7422 11.0852 15.4413 11.9475 15.4413Z" stroke="#EB996E" stroke-width="0.376003" stroke-linecap="round" stroke-linejoin="round"/>
<path id="Vector_17" d="M13.1993 14.3317C13.4496 13.6404 13.092 12.877 12.4007 12.6268C11.7094 12.3765 10.9461 12.7341 10.6958 13.4254C10.4455 14.1167 10.8031 14.8801 11.4944 15.1303C12.1858 15.3806 12.9491 15.023 13.1993 14.3317Z" stroke="#EB996E" stroke-width="0.376003" stroke-linecap="round" stroke-linejoin="round"/>
<path id="Vector_18" d="M12.5147 14.1487C12.5147 13.7003 11.8794 13.6883 11.8794 13.5042C11.8794 13.4057 11.931 13.3762 12.0368 13.3762C12.1344 13.381 12.2262 13.4236 12.2928 13.495L12.5018 13.2538C12.4056 13.1457 12.2759 13.073 12.1335 13.0476V12.7953H11.8573V13.0549C11.7472 13.0725 11.6476 13.1302 11.5776 13.2169C11.5075 13.3036 11.4721 13.4132 11.478 13.5245C11.478 13.9553 12.1132 13.9848 12.1132 14.1791C12.1132 14.2711 12.0645 14.3171 11.9411 14.3171C11.8157 14.31 11.6962 14.2614 11.6014 14.1791L11.4172 14.4645C11.5425 14.5669 11.6947 14.6308 11.8555 14.6486V14.8962H12.1317V14.6311C12.2432 14.6109 12.3436 14.5508 12.414 14.462C12.4845 14.3733 12.5203 14.2619 12.5147 14.1487V14.1487Z" stroke="#EB996E" stroke-width="0.376003" stroke-linecap="round" stroke-linejoin="round"/>
</g>
<g id="Group_7" opacity="0.3">
<path id="Vector_19" d="M10.9801 36.203C12.8598 35.9968 14.2164 34.3058 14.0102 32.4261C13.804 30.5465 12.1131 29.1898 10.2334 29.396C8.35371 29.6022 6.99708 31.2931 7.20327 33.1728C7.40946 35.0525 9.1004 36.4091 10.9801 36.203Z" stroke="#EB996E" stroke-width="0.376003" stroke-linecap="round" stroke-linejoin="round"/>
<path id="Vector_20" d="M13.2258 34.0883C13.9389 32.6428 13.3453 30.8929 11.8998 30.1798C10.4543 29.4666 8.70441 30.0603 7.99127 31.5058C7.27813 32.9513 7.8718 34.7012 9.31727 35.4143C10.7627 36.1274 12.5126 35.5338 13.2258 34.0883Z" stroke="#EB996E" stroke-width="0.376003" stroke-linecap="round" stroke-linejoin="round"/>
<path id="Vector_21" d="M11.8508 33.3847C11.8508 32.4024 10.4588 32.3812 10.4588 31.9706C10.4588 31.7552 10.572 31.6898 10.804 31.6898C11.0038 31.6898 11.1723 31.7764 11.3656 31.9494L11.826 31.4201C11.6128 31.1824 11.3258 31.0234 11.0112 30.969V30.4166H10.4045V30.9855C9.88524 31.0978 9.5759 31.4689 9.5759 32.0139C9.5759 32.9585 10.9679 33.0174 10.9679 33.4492C10.9679 33.66 10.8602 33.7512 10.5905 33.7512C10.364 33.7512 10.1366 33.6646 9.84565 33.4492L9.44609 34.0752C9.71988 34.3012 10.0535 34.4426 10.4063 34.4821V35.0244H11.0112V34.4444C11.5728 34.3109 11.8508 33.904 11.8508 33.3847Z" stroke="#EB996E" stroke-width="0.376003" stroke-linecap="round" stroke-linejoin="round"/>
</g>
</g>
<g id="Plants">
<path id="Vector_22" d="M8.64606 16.3297C8.66815 16.7689 8.29805 17.6821 8.29805 17.6831C8.29805 17.684 7.7696 17.2568 7.74014 17.2227C7.39397 16.86 6.93733 15.9568 7.20432 15.4634C7.25097 15.3826 7.3141 15.3125 7.3896 15.2578C7.4651 15.203 7.55129 15.1647 7.64255 15.1455C7.73382 15.1262 7.82812 15.1263 7.91932 15.1459C8.01052 15.1654 8.09659 15.204 8.17192 15.259C8.49875 15.4845 8.62672 15.9559 8.64606 16.3297Z" fill="#BC9434"/>
<path id="Vector_23" d="M17.6058 25.0538L17.6629 25.0878L17.6703 25.4846L17.4327 25.3383C17.2035 25.1956 16.9614 25.039 16.7137 24.8779C16.5223 25.0864 16.3188 25.2835 16.1042 25.4681C16.2939 25.8474 16.374 26.6649 16.3804 26.7699C16.6465 26.7634 16.9052 26.7542 17.1492 26.7422C17.3167 26.734 17.4778 26.7247 17.6334 26.7146L17.5027 27.0608C17.3913 27.0608 17.279 27.0691 17.1621 27.0718C16.8923 27.0792 16.6041 27.0829 16.3077 27.0829C16.2911 27.1888 16.1493 28.0588 15.9219 28.404C15.7157 28.7161 15.3696 29.0567 14.97 29.0816C14.8778 29.0903 14.7848 29.0797 14.6969 29.0503C14.6091 29.021 14.5284 28.9735 14.4599 28.9111C14.3915 28.8487 14.3369 28.7726 14.2997 28.6878C14.2624 28.603 14.2433 28.5114 14.2436 28.4187C14.2648 27.8571 15.1173 27.314 15.5997 27.1759C15.6283 27.1685 15.9468 27.116 16.1475 27.0838C16.0269 27.0838 15.9091 27.0838 15.7848 27.0838C15.538 27.0838 15.2922 27.0709 15.0271 27.0617L14.6404 27.0341C14.5115 27.0276 14.3753 27.0046 14.2418 26.9899C13.9315 26.9503 13.6203 26.8978 13.3073 26.8325C13.3073 27.0479 13.2834 27.8139 13.1232 28.1554C12.963 28.497 12.673 28.8855 12.2854 28.9702C12.1949 28.9931 12.1005 28.9966 12.0085 28.9806C11.9165 28.9646 11.829 28.9294 11.7515 28.8773C11.674 28.8252 11.6084 28.7573 11.5589 28.6782C11.5094 28.599 11.4771 28.5103 11.4642 28.4178C11.3997 27.8599 12.1602 27.1915 12.6168 26.9844C12.6444 26.9715 12.9851 26.8601 13.1793 26.8002C12.9952 26.7607 12.8037 26.7229 12.615 26.6769C12.07 26.5443 11.5231 26.3933 10.9762 26.2451L10.4763 26.1171C10.4763 26.1945 10.4717 27.1059 10.2922 27.488C10.1357 27.8277 9.84107 28.218 9.45439 28.3027C9.36386 28.3258 9.26948 28.3294 9.17744 28.3135C9.08539 28.2976 8.99774 28.2624 8.92023 28.2102C8.84272 28.1581 8.77708 28.0902 8.72761 28.0109C8.67815 27.9317 8.64597 27.8429 8.63318 27.7503C8.56873 27.1924 9.32919 26.524 9.78491 26.3169C9.81989 26.3013 10.3152 26.1411 10.4432 26.107C10.0749 26.0094 9.70665 25.9164 9.33839 25.84C8.84317 25.7338 8.3416 25.6597 7.83681 25.6181C7.83681 25.654 7.83681 26.6051 7.65269 26.9991C7.49525 27.3388 7.20157 27.7283 6.8149 27.813C6.7243 27.8361 6.62983 27.8399 6.53767 27.824C6.44551 27.8082 6.35775 27.773 6.28013 27.7209C6.20251 27.6687 6.13678 27.6007 6.08726 27.5214C6.03773 27.4421 6.00553 27.3532 5.99276 27.2606C5.92923 26.7036 6.68877 26.0343 7.14541 25.8271C7.18131 25.8115 7.71437 25.643 7.81288 25.6144C7.78342 25.6144 7.75396 25.6071 7.72081 25.6052C7.21359 25.5777 6.70494 25.5953 6.20082 25.6577C5.92463 25.689 5.65764 25.7341 5.40078 25.7838C5.41919 25.9615 5.49284 26.7717 5.36948 27.1427C5.25071 27.4981 5.00122 27.917 4.62559 28.044C4.53913 28.075 4.44718 28.0877 4.35555 28.0814C4.26392 28.075 4.17461 28.0497 4.09327 28.007C4.01193 27.9644 3.94033 27.9053 3.88299 27.8335C3.82566 27.7618 3.78384 27.6789 3.76018 27.5902C3.63498 27.0378 4.31257 26.2948 4.74804 26.0389C4.77106 26.0251 5.02423 25.91 5.20836 25.828C5.09236 25.8529 4.9736 25.8759 4.86312 25.9008C4.44975 25.9928 4.07597 26.107 3.74637 26.2092C3.56225 26.269 3.39193 26.3261 3.23541 26.3813C3.16268 26.5655 2.85887 27.302 2.5836 27.5662C2.30832 27.8304 1.89955 28.0836 1.50828 28.0265C1.117 27.9695 0.838047 27.6086 0.940239 27.2173C1.0811 26.6741 2.03121 26.3243 2.53204 26.2966C2.57531 26.2966 3.25567 26.3335 3.25199 26.3427V26.3537C3.40205 26.2976 3.56225 26.2386 3.73993 26.1788C4.06768 26.0692 4.43962 25.9486 4.85299 25.8446C5.29706 25.7261 5.74773 25.6339 6.20266 25.5684C6.71159 25.4941 7.2261 25.4652 7.74015 25.4819H7.75856C7.60297 25.4266 7.17579 25.2572 7.14449 25.2407C6.70258 25.0041 5.98723 24.2887 6.08666 23.7363C6.10575 23.6451 6.14385 23.5588 6.19848 23.4833C6.25311 23.4077 6.32305 23.3445 6.40374 23.2978C6.48444 23.251 6.57407 23.2218 6.6668 23.212C6.75953 23.2023 6.85328 23.2121 6.94194 23.241C7.32309 23.3506 7.5864 23.7575 7.72542 24.1073C7.87732 24.5014 7.82301 25.4147 7.81748 25.4883C8.34015 25.5185 8.86024 25.5834 9.3743 25.6826C9.67351 25.7387 9.97456 25.805 10.2747 25.875C10.1421 25.8225 10.0243 25.7746 10.0086 25.7664C9.56579 25.5297 8.85137 24.8144 8.9508 24.262C8.96991 24.1707 9.00801 24.0845 9.06263 24.0089C9.11725 23.9333 9.18716 23.8701 9.26783 23.8233C9.34849 23.7764 9.43811 23.7471 9.53084 23.7372C9.62357 23.7273 9.71735 23.7371 9.80608 23.7658C10.1872 23.8753 10.4551 24.2832 10.5896 24.633C10.724 24.9829 10.6954 25.7673 10.6816 25.9735C10.7967 26.0011 10.9118 26.0278 11.0259 26.0564C11.5783 26.1926 12.1307 26.3326 12.6684 26.4504C12.859 26.4927 13.0495 26.5277 13.2392 26.5627C13.1213 26.5158 13.0228 26.4762 13.009 26.4706C12.5662 26.235 11.8508 25.5187 11.9512 24.9663C11.9703 24.875 12.0084 24.7888 12.063 24.7132C12.1176 24.6377 12.1876 24.5745 12.2683 24.5277C12.349 24.481 12.4386 24.4518 12.5313 24.442C12.6241 24.4323 12.7178 24.4421 12.8065 24.471C13.1867 24.5806 13.4555 24.9884 13.5899 25.3373C13.7244 25.6863 13.6986 26.3961 13.682 26.641C13.8772 26.6713 14.0733 26.7017 14.2639 26.722C14.3946 26.733 14.5189 26.7533 14.6505 26.757L15.0381 26.7763C15.2849 26.7763 15.539 26.7837 15.7802 26.7809C15.9468 26.7809 16.107 26.7763 16.2672 26.7726C16.0766 26.733 15.7047 26.6474 15.6743 26.6364C15.2642 26.4745 14.9023 26.2105 14.6229 25.8695C14.5766 25.8534 14.5319 25.833 14.4894 25.8087C14.4069 25.7651 14.3346 25.7046 14.277 25.6312C14.2195 25.5578 14.1781 25.473 14.1555 25.3825C14.1329 25.292 14.1296 25.1977 14.1459 25.1059C14.1622 25.014 14.1977 24.9266 14.25 24.8494C14.5769 24.3937 15.5887 24.4084 16.0656 24.5621C16.0941 24.5713 16.3887 24.703 16.5728 24.7895C16.4725 24.7223 16.374 24.6579 16.2709 24.587C16.0665 24.4489 15.8667 24.3053 15.6513 24.1515L15.3502 23.9076C15.2462 23.8311 15.1458 23.7372 15.0418 23.6507C14.8061 23.4472 14.576 23.2281 14.3495 23.0062C14.2289 23.1849 13.7888 23.8127 13.4684 24.0107C13.148 24.2086 12.6905 24.3707 12.3213 24.2279C11.9521 24.0852 11.7551 23.6756 11.9383 23.3165C12.1924 22.8157 13.1959 22.6776 13.6875 22.7558C13.7188 22.7614 14.0668 22.858 14.2574 22.9142C14.123 22.7779 13.9877 22.6426 13.8551 22.4999C13.4739 22.0893 13.1002 21.6612 12.7264 21.2358C12.6113 21.106 12.4953 20.9771 12.3802 20.8482C12.3379 20.9127 11.8278 21.6704 11.4725 21.8923C11.1548 22.0893 10.6945 22.2513 10.3253 22.1086C10.2373 22.078 10.1566 22.0292 10.0886 21.9654C10.0206 21.9016 9.96684 21.8242 9.93072 21.7382C9.8946 21.6523 9.87697 21.5597 9.87897 21.4665C9.88097 21.3733 9.90256 21.2815 9.94234 21.1972C10.1974 20.6973 11.1999 20.5582 11.6916 20.6374C11.7293 20.6439 12.2311 20.7829 12.3563 20.8215C12.1022 20.5371 11.8462 20.2563 11.5829 19.993C11.2285 19.6315 10.8512 19.2932 10.4533 18.9803C10.434 19.0106 9.90827 19.8033 9.54185 20.0307C9.22331 20.2277 8.76299 20.3907 8.39381 20.248C8.3057 20.2173 8.22503 20.1684 8.15706 20.1045C8.0891 20.0406 8.03534 19.9631 7.9993 19.877C7.96326 19.791 7.94575 19.6983 7.94789 19.605C7.95003 19.5117 7.97179 19.4199 8.01174 19.3356C8.26584 18.8357 9.26842 18.6976 9.76097 18.7759C9.80056 18.7823 10.3401 18.9333 10.4358 18.9674C10.4128 18.949 10.3907 18.9278 10.3668 18.9103C9.95884 18.6079 9.52507 18.342 9.07048 18.1158C8.82099 17.9887 8.57517 17.8801 8.33396 17.7797C8.25111 17.9381 7.86443 18.6543 7.55786 18.8956C7.25128 19.1368 6.82134 19.3384 6.44019 19.2371C6.34932 19.2162 6.26385 19.1765 6.18934 19.1204C6.11483 19.0644 6.05295 18.9933 6.00771 18.9118C5.96248 18.8302 5.9349 18.7401 5.92677 18.6472C5.91864 18.5543 5.93014 18.4608 5.96053 18.3726C6.15755 17.8479 7.13896 17.6002 7.6398 17.6241C7.66742 17.6241 7.94269 17.6693 8.14247 17.7042C8.03291 17.661 7.92059 17.6122 7.81472 17.5744C7.417 17.4253 7.04414 17.313 6.70994 17.2154C6.52581 17.162 6.34905 17.1178 6.18793 17.0773C6.0259 17.1896 5.36764 17.6352 4.99109 17.7052C4.61455 17.7751 4.13489 17.7604 3.84212 17.4943C3.54936 17.2283 3.51345 16.7762 3.8145 16.5065C4.23156 16.1308 5.21665 16.3638 5.65028 16.6151C5.6871 16.6372 6.23397 17.0451 6.22568 17.0515L6.21555 17.0579C6.37114 17.0938 6.53778 17.1334 6.71915 17.1804C7.05334 17.2725 7.42897 17.3746 7.83129 17.5164C8.26637 17.6638 8.69244 17.8366 9.10731 18.0338C9.57265 18.253 10.0178 18.5127 10.4376 18.8099L10.4515 18.8219C10.3529 18.6902 10.0906 18.3128 10.0731 18.2815C9.83462 17.8405 9.633 16.849 10.0215 16.4402C10.0878 16.3747 10.1671 16.3239 10.2543 16.2911C10.3415 16.2583 10.4347 16.2442 10.5277 16.2497C10.6207 16.2553 10.7115 16.2804 10.7941 16.3233C10.8768 16.3663 10.9495 16.4262 11.0075 16.4991C11.2653 16.8002 11.2635 17.2881 11.1834 17.6536C11.0913 18.0661 10.5389 18.798 10.4993 18.856C10.9229 19.1702 11.3249 19.5126 11.7026 19.8806C11.9217 20.0933 12.1362 20.3134 12.3471 20.5371C12.2661 20.4211 12.1933 20.3161 12.185 20.3005C11.9466 19.8595 11.745 18.867 12.1335 18.4592C12.1998 18.3937 12.2791 18.3429 12.3663 18.3101C12.4535 18.2773 12.5466 18.2632 12.6396 18.2687C12.7326 18.2743 12.8234 18.2994 12.9061 18.3423C12.9888 18.3853 13.0615 18.4452 13.1195 18.5181C13.3773 18.8191 13.3754 19.3071 13.2953 19.6726C13.2152 20.0381 12.7577 20.677 12.6343 20.8436C12.7153 20.9302 12.7963 21.0158 12.8764 21.1023C13.2604 21.5203 13.6415 21.9383 14.0282 22.3369C14.1644 22.4778 14.3044 22.6131 14.4425 22.7457C14.3707 22.6417 14.3108 22.5542 14.3025 22.5395C14.0641 22.0985 13.8625 21.107 14.251 20.6982C14.5272 20.4063 14.9875 20.4625 15.237 20.7571C15.4865 21.0517 15.4929 21.547 15.4128 21.9125C15.3327 22.278 14.9194 22.8543 14.7739 23.0523C14.9203 23.1858 15.0667 23.3193 15.2149 23.4417C15.3171 23.5227 15.411 23.6084 15.5187 23.6838L15.8308 23.9131C16.0352 24.0521 16.2442 24.1966 16.4467 24.3265C16.5867 24.4185 16.7229 24.5032 16.8582 24.5888C16.7211 24.4507 16.4578 24.1736 16.4384 24.1479C16.1355 23.7483 15.7866 22.7991 16.1088 22.3388C16.1644 22.264 16.2352 22.2017 16.3164 22.156C16.3977 22.1103 16.4876 22.0822 16.5804 22.0735C16.6732 22.0648 16.7668 22.0757 16.8551 22.1056C16.9434 22.1354 17.0245 22.1835 17.093 22.2467C17.3922 22.5054 17.4613 22.9878 17.441 23.3616C17.4143 23.7731 17.0028 24.5502 16.9503 24.6505C17.1749 24.7941 17.395 24.9295 17.6058 25.0538Z" fill="#BC9434"/>
<path id="Vector_24" d="M5.32253 25.7258C5.32253 25.736 4.64677 25.6614 4.60442 25.6522C4.11556 25.5408 3.23634 25.039 3.18663 24.4802C3.18109 24.3871 3.19522 24.2939 3.22808 24.2066C3.26094 24.1193 3.31181 24.0399 3.37737 23.9735C3.44293 23.9072 3.52171 23.8554 3.60861 23.8215C3.6955 23.7876 3.78855 23.7724 3.88171 23.7768C4.27759 23.7814 4.64401 24.1036 4.86589 24.4056C5.12643 24.7591 5.32253 25.7249 5.32253 25.7258Z" fill="#BC9434"/>
<path id="Vector_25" d="M54.2292 16.3297C54.2071 16.7689 54.5763 17.6821 54.5763 17.6831C54.5763 17.684 55.1047 17.2568 55.1351 17.2227C55.4813 16.86 55.9379 15.9568 55.6709 15.4634C55.6243 15.3826 55.5612 15.3125 55.4857 15.2578C55.4101 15.203 55.324 15.1647 55.2327 15.1455C55.1414 15.1262 55.0471 15.1263 54.9559 15.1459C54.8647 15.1654 54.7787 15.204 54.7033 15.259C54.3756 15.4845 54.2476 15.9559 54.2292 16.3297Z" fill="#BC9434"/>
<path id="Vector_26" d="M45.2695 25.0538L45.2115 25.0878L45.205 25.4846L45.4426 25.3382C45.6718 25.1955 45.9139 25.039 46.1607 24.8779C46.3521 25.0864 46.5556 25.2835 46.7701 25.4681C46.5805 25.8474 46.5013 26.6649 46.4939 26.7698C46.2279 26.7634 45.9701 26.7542 45.7261 26.7422C45.5576 26.7339 45.3965 26.7247 45.2419 26.7146L45.3735 27.0635C45.484 27.0635 45.5963 27.0718 45.7132 27.0746C45.983 27.0819 46.2721 27.0856 46.5685 27.0856C46.5851 27.1915 46.7269 28.0615 46.9543 28.4068C47.1605 28.7189 47.5066 29.0595 47.9053 29.0844C47.9981 29.0935 48.0918 29.0831 48.1803 29.0536C48.2688 29.0242 48.3501 28.9764 48.4189 28.9134C48.4877 28.8504 48.5424 28.7737 48.5796 28.6881C48.6167 28.6026 48.6354 28.5102 48.6344 28.4169C48.6133 27.8553 47.7607 27.3121 47.2783 27.174C47.2498 27.1666 46.9312 27.1142 46.7259 27.0819C46.8475 27.0819 46.9644 27.0819 47.0942 27.0819C47.3409 27.0819 47.5867 27.0691 47.851 27.0599L48.2376 27.0322C48.3675 27.0258 48.5028 27.0028 48.6372 26.988C48.9465 26.9485 49.2586 26.896 49.5717 26.8306C49.5717 27.046 49.5947 27.812 49.7558 28.1536C49.9169 28.4951 50.2069 28.8837 50.5936 28.9684C50.6842 28.9912 50.7786 28.9948 50.8706 28.9788C50.9626 28.9628 51.0503 28.9276 51.1278 28.8755C51.2054 28.8234 51.2711 28.7556 51.3207 28.6764C51.3703 28.5972 51.4027 28.5085 51.4157 28.416C51.4792 27.8581 50.7197 27.1897 50.2631 26.9825C50.2345 26.9696 49.8948 26.8582 49.7006 26.7984C49.8847 26.7588 50.0753 26.7211 50.2649 26.675C50.809 26.5424 51.3568 26.3915 51.9037 26.2432L52.3953 26.1171C52.3953 26.1944 52.3999 27.1059 52.5794 27.488C52.7359 27.8277 53.0296 28.218 53.4163 28.3027C53.803 28.3874 54.1924 28.1545 54.2384 27.7503C54.302 27.1924 53.5424 26.524 53.0858 26.3169C53.0517 26.3012 52.5564 26.141 52.4284 26.107C52.7967 26.0094 53.165 25.9164 53.5332 25.84C54.0281 25.7338 54.5294 25.6597 55.0339 25.6181C55.0339 25.654 55.0339 26.6051 55.218 26.9991C55.3745 27.3388 55.6691 27.7282 56.0558 27.8129C56.1463 27.836 56.2407 27.8396 56.3327 27.8237C56.4248 27.8078 56.5124 27.7726 56.59 27.7204C56.6675 27.6683 56.7331 27.6004 56.7826 27.5211C56.832 27.4419 56.8642 27.3531 56.877 27.2606C56.9415 26.7036 56.1819 26.0342 55.7253 25.8271C55.6894 25.8115 55.1563 25.643 55.0569 25.6144C55.0863 25.6144 55.1167 25.6071 55.1489 25.6052C55.6559 25.5777 56.1642 25.5953 56.668 25.6577C56.9442 25.689 57.2121 25.7341 57.4681 25.7838C57.4506 25.9615 57.376 26.7717 57.5003 27.1427C57.6191 27.4981 57.8685 27.917 58.2433 28.044C58.3301 28.0761 58.4228 28.0896 58.5152 28.0838C58.6077 28.078 58.6979 28.0529 58.78 28.0101C58.8622 27.9674 58.9345 27.908 58.9924 27.8356C59.0503 27.7633 59.0924 27.6797 59.116 27.5901C59.2412 27.0378 58.5636 26.2948 58.1282 26.0389C58.1052 26.025 57.852 25.91 57.6678 25.828C57.7829 25.8529 57.9026 25.8759 58.0131 25.9008C58.4265 25.9928 58.7993 26.107 59.1289 26.2092C59.313 26.269 59.4843 26.3261 59.6408 26.3813C59.7135 26.5655 60.0173 27.302 60.2926 27.5662C60.5679 27.8304 60.9757 28.0836 61.367 28.0265C61.4596 28.0153 61.5488 27.9848 61.6289 27.9369C61.7089 27.889 61.778 27.8249 61.8316 27.7486C61.8853 27.6723 61.9223 27.5855 61.9403 27.494C61.9582 27.4025 61.9568 27.3082 61.936 27.2173C61.7942 26.6741 60.8441 26.3243 60.3442 26.2966C60.3009 26.2966 59.6205 26.3335 59.6242 26.3427V26.3537C59.4751 26.2976 59.314 26.2386 59.1372 26.1788C58.8085 26.0692 58.4375 25.9486 58.0241 25.8446C57.5801 25.7262 57.1294 25.6339 56.6745 25.5684C56.1655 25.4941 55.651 25.4652 55.137 25.4819H55.1186C55.2732 25.4266 55.7013 25.2572 55.7326 25.2407C56.1746 25.004 56.8899 24.2887 56.7895 23.7363C56.7705 23.645 56.7324 23.5588 56.6777 23.4832C56.6231 23.4077 56.5532 23.3445 56.4725 23.2977C56.3918 23.251 56.3021 23.2218 56.2094 23.212C56.1167 23.2023 56.0229 23.2121 55.9343 23.241C55.554 23.3506 55.2852 23.7575 55.1508 24.1073C54.9989 24.5014 55.0587 25.4147 55.0587 25.4883C54.5355 25.518 54.0147 25.5826 53.5001 25.6816C53.1999 25.7378 52.8998 25.8041 52.5997 25.8741C52.7322 25.8216 52.8501 25.7737 52.8657 25.7654C53.3077 25.5288 54.023 24.8135 53.9236 24.2611C53.9045 24.1698 53.8664 24.0836 53.8117 24.008C53.7571 23.9324 53.6872 23.8691 53.6065 23.8223C53.5259 23.7755 53.4363 23.7462 53.3435 23.7363C53.2508 23.7264 53.157 23.7361 53.0683 23.7649C52.6871 23.8744 52.4183 24.2823 52.2839 24.6321C52.1495 24.9819 52.1789 25.7663 52.1918 25.9726L51.8466 26.0554C51.2942 26.1917 50.7473 26.3316 50.2051 26.4495C50.0136 26.4918 49.8239 26.5268 49.6343 26.5618C49.7512 26.5148 49.8497 26.4752 49.8644 26.4697C50.3063 26.234 51.0217 25.5178 50.9223 24.9654C50.9032 24.8741 50.8651 24.7879 50.8104 24.7123C50.7558 24.6367 50.6859 24.5735 50.6052 24.5268C50.5245 24.4801 50.4349 24.4509 50.3421 24.4411C50.2494 24.4313 50.1556 24.4412 50.067 24.4701C49.6858 24.5796 49.4179 24.9875 49.2835 25.3364C49.1491 25.6853 49.173 26.3933 49.1868 26.6373C48.9917 26.6677 48.7956 26.698 48.605 26.7183C48.4743 26.7293 48.349 26.7496 48.2174 26.7533L47.8307 26.7726C47.584 26.7726 47.329 26.78 47.0887 26.7772C46.9211 26.7772 46.7618 26.7726 46.6017 26.7689C46.7922 26.7293 47.1642 26.6437 47.1936 26.6327C47.6039 26.4712 47.9659 26.2071 48.245 25.8658C48.2916 25.8497 48.3366 25.8293 48.3794 25.805C48.4618 25.7613 48.5341 25.7008 48.5915 25.6273C48.649 25.5539 48.6903 25.4692 48.7129 25.3787C48.7355 25.2882 48.7388 25.194 48.7226 25.1022C48.7064 25.0104 48.671 24.923 48.6188 24.8457C48.292 24.39 47.2793 24.4047 46.8024 24.5585C46.7747 24.5677 46.4801 24.6993 46.2951 24.7859C46.3963 24.7186 46.4949 24.6542 46.5971 24.5833C46.8014 24.4452 47.0012 24.3016 47.2166 24.1478L47.5241 23.9112C47.6282 23.8348 47.7285 23.7409 47.8326 23.6544C48.0692 23.4509 48.2984 23.2318 48.5249 23.0099C48.6464 23.1885 49.0865 23.8164 49.406 24.0143C49.7254 24.2123 50.1857 24.3679 50.554 24.2289C50.9223 24.0898 51.1193 23.6765 50.9361 23.3174C50.682 22.8166 49.6794 22.6785 49.1868 22.7567C49.1565 22.7623 48.8075 22.8589 48.617 22.9151C48.7523 22.7788 48.8876 22.6435 49.0193 22.5008C49.4013 22.0902 49.7742 21.6621 50.1489 21.2368C50.2631 21.1069 50.3791 20.978 50.4942 20.8492C50.5374 20.9136 51.0465 21.6713 51.4019 21.8932C51.7205 22.0902 52.1808 22.2522 52.55 22.1095C52.638 22.0789 52.7187 22.0302 52.7867 21.9663C52.8546 21.9025 52.9084 21.8251 52.9444 21.7391C52.9805 21.6531 52.998 21.5605 52.9959 21.4673C52.9937 21.374 52.972 21.2823 52.932 21.1981C52.6779 20.6982 51.6753 20.5592 51.1828 20.6383C51.146 20.6448 50.6442 20.7838 50.5181 20.8225C50.7722 20.538 51.0291 20.2572 51.2924 19.9939C51.6462 19.6322 52.0233 19.2939 52.4211 18.9812C52.4413 19.0115 52.967 19.8042 53.3334 20.0316C53.652 20.2286 54.1114 20.3916 54.4815 20.2489C54.5696 20.2182 54.6503 20.1693 54.7182 20.1054C54.7862 20.0415 54.8399 19.964 54.876 19.8779C54.912 19.7919 54.9295 19.6992 54.9274 19.6059C54.9253 19.5126 54.9035 19.4208 54.8636 19.3365C54.6095 18.8366 53.6069 18.6985 53.1143 18.7768C53.0757 18.7832 52.5362 18.9342 52.4404 18.9683C52.4634 18.9499 52.4855 18.9287 52.5085 18.9112C52.9168 18.6088 53.3508 18.3429 53.8057 18.1167C54.0552 17.9896 54.301 17.881 54.5422 17.7806C54.6251 17.939 55.0109 18.6553 55.3184 18.8965C55.6258 19.1377 56.0549 19.3393 56.4351 19.238C56.5261 19.2173 56.6116 19.1776 56.6862 19.1216C56.7608 19.0656 56.8228 18.9945 56.8682 18.9129C56.9135 18.8314 56.9412 18.7412 56.9493 18.6483C56.9575 18.5554 56.9461 18.4617 56.9157 18.3735C56.7177 17.8488 55.7363 17.6011 55.2355 17.625C55.2088 17.625 54.9335 17.6702 54.7337 17.7051C54.8433 17.6619 54.9556 17.6131 55.0615 17.5753C55.4583 17.4262 55.8312 17.3139 56.1663 17.2163C56.3504 17.1629 56.5272 17.1187 56.6874 17.0782C56.8494 17.1905 57.5077 17.6361 57.8842 17.7061C58.2607 17.776 58.7395 17.7613 59.0332 17.4952C59.3269 17.2292 59.3618 16.7771 59.0608 16.5074C58.6428 16.1318 57.6577 16.3647 57.225 16.616C57.1873 16.6381 56.6413 17.046 56.6496 17.0524L56.6597 17.0588C56.5032 17.0948 56.3366 17.1343 56.1561 17.1813C55.8219 17.2734 55.4454 17.3756 55.0431 17.5173C54.6083 17.6647 54.1825 17.8375 53.768 18.0347C53.3024 18.2535 52.8572 18.5133 52.4376 18.8108L52.4229 18.8228C52.5214 18.6912 52.7847 18.3137 52.8013 18.2824C53.0397 17.8414 53.2414 16.8499 52.8538 16.4411C52.7874 16.3756 52.708 16.3248 52.6207 16.292C52.5335 16.2591 52.4403 16.245 52.3472 16.2506C52.2541 16.2562 52.1632 16.2812 52.0805 16.3242C51.9977 16.3672 51.9249 16.4271 51.8668 16.5C51.61 16.8011 51.6109 17.289 51.6919 17.6545C51.784 18.067 52.3364 18.7989 52.376 18.8569C51.9566 19.1704 51.5587 19.5115 51.1846 19.8779C50.9655 20.0905 50.7519 20.3106 50.5402 20.5343C50.6212 20.4183 50.693 20.3133 50.7022 20.2977C50.9407 19.8567 51.1414 18.8642 50.7538 18.4564C50.6874 18.3909 50.608 18.3401 50.5207 18.3073C50.4335 18.2744 50.3403 18.2603 50.2472 18.2659C50.1541 18.2715 50.0632 18.2965 49.9805 18.3395C49.8977 18.3825 49.8249 18.4424 49.7668 18.5153C49.51 18.8164 49.5109 19.3043 49.5919 19.6698C49.6729 20.0353 50.1296 20.6742 50.252 20.8409L50.0016 21.1051C49.6177 21.5231 49.2356 21.941 48.849 22.3397C48.7136 22.4805 48.5728 22.6159 48.4347 22.7485C48.5074 22.6444 48.5672 22.557 48.5746 22.5422C48.8131 22.1012 49.0147 21.1097 48.6271 20.7009C48.5607 20.6354 48.4813 20.5846 48.394 20.5518C48.3068 20.519 48.2136 20.5049 48.1205 20.5104C48.0274 20.516 47.9365 20.5411 47.8538 20.584C47.771 20.627 47.6982 20.6869 47.6401 20.7599C47.3833 21.0609 47.3842 21.5498 47.4652 21.9153C47.5462 22.2808 47.9587 22.8571 48.1032 23.055C47.9568 23.1885 47.8114 23.322 47.6632 23.4445C47.56 23.5255 47.4671 23.6111 47.3593 23.6866L47.0463 23.9158C46.8429 24.0549 46.633 24.1994 46.4304 24.3292C46.2905 24.4213 46.1542 24.506 46.0198 24.5916C46.157 24.4535 46.4203 24.1764 46.4396 24.1506C46.7416 23.751 47.0914 22.8019 46.7692 22.3415C46.7136 22.2667 46.6429 22.2044 46.5616 22.1587C46.4804 22.113 46.3904 22.0849 46.2976 22.0762C46.2048 22.0676 46.1112 22.0785 46.0229 22.1083C45.9346 22.1382 45.8536 22.1863 45.785 22.2495C45.4849 22.5082 45.4168 22.9906 45.4361 23.3644C45.4637 23.7759 45.8753 24.5529 45.9268 24.6533C45.7003 24.7941 45.4794 24.9295 45.2695 25.0538Z" fill="#BC9434"/>
<path id="Vector_27" d="M57.5509 25.7258C57.5509 25.736 58.2266 25.6614 58.269 25.6522C58.7569 25.5408 59.6361 25.039 59.6859 24.4802C59.7218 24.0779 59.3793 23.7722 58.9917 23.7768C58.6041 23.7814 58.2294 24.1036 58.0075 24.4056C57.7488 24.7591 57.5509 25.7249 57.5509 25.7258Z" fill="#BC9434"/>
</g>
<g id="Chronometer">
<path id="Vector_28" d="M19.1219 8.59555L17.5547 9.82263L19.4566 12.2517L21.0238 11.0246L19.1219 8.59555Z" fill="#BC9434" stroke="#BC9434" stroke-width="0.376003" stroke-linejoin="round"/>
<path id="Vector_29" d="M18.9965 7.30486L16.3318 9.39124L17.6814 11.115L20.3461 9.02864L18.9965 7.30486Z" fill="#BC9434" stroke="#BC9434" stroke-width="0.376003" stroke-linejoin="round"/>
<path id="Vector_30" d="M16.907 9.02252L17.8967 10.2866" stroke="#BC9434" stroke-width="0.376003" stroke-linejoin="round"/>
<path id="Vector_31" d="M17.8092 8.31638L18.7989 9.57951" stroke="#BC9434" stroke-width="0.376003" stroke-linejoin="round"/>
<path id="Vector_32" d="M17.5634 8.99399L18.5531 10.2571" stroke="#BC9434" stroke-width="0.376003" stroke-linejoin="round"/>
<path id="Vector_33" d="M39.4542 11.0264L41.0214 12.2535L42.9233 9.82438L41.3561 8.5973L39.4542 11.0264Z" fill="#BC9434" stroke="#BC9434" stroke-width="0.376003" stroke-linejoin="round"/>
<path id="Vector_34" d="M40.1334 9.02819L42.7981 11.1146L44.1478 9.39078L41.4831 7.3044L40.1334 9.02819Z" fill="#BC9434" stroke="#BC9434" stroke-width="0.376003" stroke-linejoin="round"/>
<path id="Vector_35" d="M43.5736 9.02252L42.5839 10.2866" stroke="#BC9434" stroke-width="0.376003" stroke-linejoin="round"/>
<path id="Vector_36" d="M42.6714 8.31638L41.6817 9.57951" stroke="#BC9434" stroke-width="0.376003" stroke-linejoin="round"/>
<path id="Vector_37" d="M42.9172 8.99399L41.9275 10.2571" stroke="#BC9434" stroke-width="0.376003" stroke-linejoin="round"/>
<path id="Vector_38" d="M31.734 4.32812H28.5063V7.56052H31.734V4.32812Z" fill="#BC9434" stroke="#BC9434" stroke-width="0.376003" stroke-linejoin="round"/>
<path id="Vector_39" d="M32.4559 2.47394H27.7845V5.70633H32.4559V2.47394Z" fill="#BC9434" stroke="#BC9434" stroke-width="0.376003" stroke-linejoin="round"/>
<path id="Vector_40" d="M28.2043 2.46289V5.15671" stroke="#BC9434" stroke-width="0.376003" stroke-linejoin="round"/>
<path id="Vector_41" d="M28.5891 5.27732V3.83374" stroke="#BC9434" stroke-width="0.376003" stroke-linejoin="round"/>
<path id="Vector_42" d="M28.9979 2.53561V4.57945" stroke="#BC9434" stroke-width="0.376003" stroke-linejoin="round"/>
<path id="Vector_43" d="M29.4066 3.52164V5.39792" stroke="#BC9434" stroke-width="0.376003" stroke-linejoin="round"/>
<path id="Vector_44" d="M30.0327 2.55957V4.67614" stroke="#BC9434" stroke-width="0.376003" stroke-linejoin="round"/>
<path id="Vector_45" d="M42.0595 35.8198C48.6537 29.2255 48.6537 18.5342 42.0595 11.9399C35.4652 5.34568 24.7738 5.34568 18.1796 11.9399C11.5854 18.5342 11.5854 29.2255 18.1796 35.8198C24.7738 42.414 35.4652 42.414 42.0595 35.8198Z" fill="#BC9434" stroke="#BC9434" stroke-width="0.376003" stroke-linejoin="round"/>
<path id="Vector_46" d="M40.6598 34.4201C46.4811 28.5989 46.4811 19.1608 40.6598 13.3396C34.8386 7.51833 25.4005 7.51833 19.5793 13.3396C13.758 19.1608 13.758 28.5989 19.5793 34.4201C25.4005 40.2414 34.8386 40.2414 40.6598 34.4201Z" fill="white" stroke="#BC9434" stroke-width="0.376003" stroke-linejoin="round"/>
<path id="Vector_47" d="M39.8337 33.594C45.1987 28.229 45.1987 19.5307 39.8337 14.1657C34.4687 8.80069 25.7704 8.80069 20.4054 14.1657C15.0404 19.5307 15.0404 28.229 20.4054 33.594C25.7704 38.959 34.4687 38.959 39.8337 33.594Z" fill="white" stroke="#BC9434" stroke-width="0.376003" stroke-linejoin="round"/>
<path id="Vector_48" d="M30.1202 10.142V12.0045" stroke="#BC9434" stroke-width="0.376003" stroke-linejoin="round"/>
<path id="Vector_49" d="M30.1202 35.7416V37.604" stroke="#BC9434" stroke-width="0.376003" stroke-linejoin="round"/>
<path id="Vector_50" d="M43.8507 23.8735H41.9882" stroke="#BC9434" stroke-width="0.376003" stroke-linejoin="round"/>
<path id="Vector_51" d="M18.2512 23.8735H16.3887" stroke="#BC9434" stroke-width="0.376003" stroke-linejoin="round"/>
<path id="Vector_52" d="M39.8293 14.1643L38.5119 15.4809" stroke="#BC9434" stroke-width="0.376003" stroke-linejoin="round"/>
<path id="Vector_53" d="M21.7275 32.2652L20.411 33.5826" stroke="#BC9434" stroke-width="0.376003" stroke-linejoin="round"/>
<path id="Vector_54" d="M20.411 14.1643L21.7275 15.4809" stroke="#BC9434" stroke-width="0.376003" stroke-linejoin="round"/>
<path id="Vector_55" d="M38.5119 32.2652L39.8293 33.5826" stroke="#BC9434" stroke-width="0.376003" stroke-linejoin="round"/>
<path id="Vector_56" d="M33.5091 22.5652L33.7236 23.3837L19.6837 26.7698L19.6192 26.524L33.5091 22.5652Z" fill="#BC9434" stroke="#BC9434" stroke-width="0.376003" stroke-linejoin="round"/>
<path id="Vector_57" d="M30.6587 23.88C30.6587 23.7734 30.6271 23.6693 30.568 23.5807C30.5088 23.4922 30.4247 23.4231 30.3263 23.3824C30.2278 23.3416 30.1196 23.3309 30.0151 23.3517C29.9106 23.3725 29.8146 23.4238 29.7393 23.4991C29.664 23.5744 29.6127 23.6704 29.5919 23.7749C29.5711 23.8794 29.5818 23.9876 29.6226 24.0861C29.6633 24.1845 29.7324 24.2686 29.8209 24.3278C29.9095 24.3869 30.0136 24.4185 30.1202 24.4185C30.1909 24.4185 30.2609 24.4046 30.3263 24.3775C30.3916 24.3505 30.451 24.3108 30.501 24.2608C30.551 24.2108 30.5907 24.1514 30.6177 24.0861C30.6448 24.0207 30.6587 23.9507 30.6587 23.88Z" fill="white" stroke="#BC9434" stroke-width="0.376003" stroke-linejoin="round"/>
</g>
<g id="Character">
<path id="Vector_58" d="M24.9471 34.0881L24.1047 33.5357C24.1047 33.5357 23.5827 34.0411 23.5523 34.0881C23.5219 34.135 22.0875 34.3063 21.8031 34.3063C21.5186 34.3063 21.3151 34.2391 21.281 34.3744C21.247 34.5097 21.6852 34.8117 22.3251 34.9802C22.5773 35.0465 22.9456 35.179 23.3083 35.3088L23.2512 35.4515C23.2512 35.4515 24.2105 35.8051 24.3625 35.8198C24.414 35.8263 24.4637 35.748 24.507 35.643C24.6571 35.5077 24.9471 34.0881 24.9471 34.0881Z" fill="#BC9434" stroke="#BC9434" stroke-width="0.376003" stroke-linejoin="round"/>
<path id="Vector_59" d="M39.2116 26.8831L39.4141 27.8663C39.4141 27.8663 40.1405 27.8755 40.2004 27.8663C40.2602 27.8571 41.3972 28.7437 41.597 28.9453C41.7968 29.1469 41.8953 29.3366 42.015 29.2648C42.1347 29.193 42.0361 28.67 41.701 28.0992C41.5685 27.8746 41.4 27.5211 41.2352 27.1731L41.376 27.1123C41.376 27.1123 40.9443 26.1852 40.8485 26.0665C40.8154 26.0259 40.7251 26.0462 40.6211 26.0895C40.4149 26.083 39.2116 26.8831 39.2116 26.8831Z" fill="#BC9434" stroke="#BC9434" stroke-width="0.376003" stroke-linejoin="round"/>
<path id="Vector_60" d="M29.3791 24.2528C29.3791 24.2528 29.1093 24.4213 29.1434 24.5225C29.1774 24.6238 29.3956 24.7914 29.3956 24.7914C29.3956 24.7914 25.8364 27.8599 25.7692 28.0956C25.702 28.3313 23.5504 33.532 23.5504 33.532L25.2002 34.3606L27.4024 29.1258L31.1467 26.7321C31.1467 26.7321 33.8534 30.5822 34.1232 30.5491C34.3929 30.516 39.9306 27.9363 39.9306 27.9363L39.3902 26.6695L34.7115 28.2714L33.2504 24.9939C33.2504 24.9939 33.6039 24.3872 33.3857 23.7971C33.1675 23.2069 32.5268 22.2982 32.5268 22.2982L29.3791 24.2528Z" fill="#BC9434" stroke="#BC9434" stroke-width="0.376003" stroke-linejoin="round"/>
<path id="Vector_61" d="M31.1458 26.7275C31.1458 26.7275 32.9392 25.654 33.0911 25.5021" stroke="#999999" stroke-width="0.376003" stroke-linejoin="round"/>
<path id="Vector_62" d="M30.1671 24.2362C30.3741 24.0517 30.5944 23.8828 30.8263 23.7308C31.1798 23.5292 31.9882 23.5623 31.9882 23.5623" stroke="#999999" stroke-width="0.376003" stroke-linejoin="round"/>
<path id="Vector_63" d="M29.5973 24.7407C29.5973 24.7407 29.7169 24.6303 29.8863 24.4802" stroke="#999999" stroke-width="0.376003" stroke-linejoin="round"/>
<path id="Vector_64" d="M32.3749 23.3772C32.3749 23.3772 31.7019 23.2925 31.178 23.4279" stroke="#999999" stroke-width="0.376003" stroke-linejoin="round"/>
<path id="Vector_65" d="M31.5665 26.559C31.5665 26.559 32.9641 26.8122 33.4189 26.7781" stroke="#999999" stroke-width="0.376003" stroke-linejoin="round"/>
<path id="Vector_66" d="M33.266 27.6408C33.3747 27.673 33.4824 27.6997 33.5873 27.7209" stroke="#999999" stroke-width="0.376003" stroke-linejoin="round"/>
<path id="Vector_67" d="M31.5499 26.8629C32.0027 27.1301 32.4777 27.3577 32.9696 27.5432" stroke="#999999" stroke-width="0.376003" stroke-linejoin="round"/>
<path id="Vector_68" d="M29.1084 23.9499L29.3781 24.2528L32.5268 22.2992L32.3242 22.0975L29.1084 23.9499Z" fill="#BC9434" stroke="#BC9434" stroke-width="0.376003" stroke-linejoin="round"/>
<path id="Vector_69" d="M33.6886 20.05L33.9777 20.4395L34.6847 20.1946L34.5402 19.8475L33.6886 20.05Z" fill="white" stroke="#BC9434" stroke-width="0.376003" stroke-linejoin="round"/>
<path id="Vector_70" d="M26.2488 17.2108C26.2488 17.2108 24.8485 17.231 24.1314 17.2108C23.4142 17.1905 21.4099 16.7909 21.2497 17.0911C21.0895 17.3912 21.4293 18.2115 22.4107 18.5319C23.3921 18.8523 25.5326 19.1524 25.5326 19.1524C25.5326 19.1524 26.4127 20.2572 26.9136 20.9136C27.4144 21.57 28.3341 23.0955 28.4142 23.2355C28.4943 23.3754 28.8543 24.2362 29.3349 24.0558C29.8154 23.8753 32.4365 22.255 32.4365 22.1344C32.4365 22.0138 32.4365 21.8582 32.3573 21.7542C32.2782 21.6501 31.3363 20.4938 31.1762 20.1891C31.016 19.8843 30.4396 18.4085 30.4396 18.4085L31.7 18.1084C31.7 18.1084 33.1813 19.749 33.4612 20.0095C33.7411 20.2701 33.9814 20.1697 33.9814 20.1697C33.9814 20.1697 34.6424 20.0491 34.6617 19.8493C34.6811 19.6496 32.4605 16.2468 32.2404 16.1272C32.0204 16.0075 30.5391 16.5074 29.9388 16.6068C29.3385 16.7062 28.6177 16.7467 27.7771 16.9475C27.274 17.0686 26.7635 17.1566 26.2488 17.2108Z" fill="white" stroke="#BC9434" stroke-width="0.376003" stroke-linejoin="round"/>
<path id="Vector_71" d="M30.4295 18.4122L28.428 18.972" stroke="#BC9434" stroke-width="0.376003" stroke-linejoin="round"/>
<path id="Vector_72" d="M29.5282 18.6718L28.8285 19.2325" stroke="#BC9434" stroke-width="0.376003" stroke-linejoin="round"/>
<path id="Vector_73" d="M23.8257 18.3698L23.5247 18.2318" stroke="#BC9434" stroke-width="0.376003" stroke-linejoin="round"/>
<path id="Vector_74" d="M24.1249 18.1922L25.5261 19.1524L24.0439 18.4711" stroke="#BC9434" stroke-width="0.376003" stroke-linejoin="round"/>
<path id="Vector_75" d="M28.8976 21.2819C29.6018 21.4282 30.8309 21.6437 31.8676 21.6207" stroke="#BC9434" stroke-width="0.376003" stroke-linejoin="round"/>
<path id="Vector_76" d="M28.3203 21.1511C28.3203 21.1511 28.4409 21.1815 28.6462 21.2275" stroke="#BC9434" stroke-width="0.376003" stroke-linejoin="round"/>
<path id="Vector_77" d="M30.494 21.3297C30.494 21.3297 31.3281 21.5028 31.8851 21.5028" stroke="#BC9434" stroke-width="0.376003" stroke-linejoin="round"/>
<path id="Vector_78" d="M26.2231 18.2677L26.526 19.2813L26.92 18.2373L26.2231 18.2677Z" fill="#BC9434" stroke="#BC9434" stroke-width="0.376003" stroke-linejoin="round"/>
<path id="Vector_79" d="M26.3142 17.5035L25.9146 17.9436L26.6033 18.4951L26.989 17.8064L26.3142 17.5035Z" fill="white" stroke="#BC9434" stroke-width="0.376003" stroke-linejoin="round"/>
<path id="Vector_80" d="M25.9146 17.9436L26.108 18.7565L26.3833 18.3155L25.9146 17.9436Z" fill="white" stroke="#BC9434" stroke-width="0.376003" stroke-linejoin="round"/>
<path id="Vector_81" d="M24.634 14.3908C24.634 14.3908 24.3578 15.0657 24.3726 15.2443C24.3873 15.4229 24.5245 15.5333 24.5107 15.7405C24.4969 15.9476 24.0697 16.3325 24.1664 16.4291C24.263 16.5258 24.6202 16.6768 24.6202 16.6768C24.6202 16.6768 25.006 17.4759 25.1441 17.5054C25.2822 17.5348 26.0251 17.161 26.0251 17.161L26.6033 18.496L27.7468 16.8029L27.361 16.0452C27.361 16.0452 27.6915 15.1918 27.3748 14.4893C27.0581 13.7869 26.0528 13.7454 25.5703 13.8283C25.0879 13.9112 24.7307 14.1155 24.634 14.3908Z" fill="white" stroke="#BC9434" stroke-width="0.376003" stroke-miterlimit="10"/>
<path id="Vector_82" d="M25.5575 14.2408C25.4455 14.217 25.3296 14.2183 25.2182 14.2445C25.1068 14.2708 25.0026 14.3214 24.913 14.3927C24.5696 14.6403 24.2796 14.9156 24.1424 14.6689C24.0052 14.4221 24.4315 14.0078 24.4315 14.0078C24.4315 14.0078 24.0872 13.9112 24.2253 13.5125C24.3634 13.1139 24.8697 13.0301 24.8697 13.1682C24.8697 13.3063 24.8283 13.4159 25.2141 13.2234C25.5998 13.031 25.806 12.9749 25.8889 13.1958C25.9717 13.4168 26.4671 13.2879 27.0314 13.6083C27.5958 13.9287 27.7339 14.1321 27.6096 14.8484C27.4853 15.5646 27.4586 15.908 27.3619 16.0452C27.2653 16.1824 26.9209 16.2238 26.77 16.1695C26.619 16.1152 26.7009 15.9624 26.7009 15.9624C26.7009 15.9624 27.1005 15.5628 26.9209 15.2461C26.7414 14.9294 26.4809 15.0675 26.398 15.2461C26.3152 15.4247 26.3566 15.5766 26.2323 15.5766C26.108 15.5766 25.9984 15.4845 25.9708 15.2875C25.9432 15.0905 25.8475 14.9193 25.7646 14.888C25.6817 14.8567 25.4755 15.0399 25.4884 14.7232C25.4932 14.5405 25.5612 14.3651 25.6808 14.2269L25.5575 14.2408Z" fill="#BC9434" stroke="#BC9434" stroke-width="0.376003" stroke-miterlimit="10"/>
<path id="Vector_83" d="M24.635 15.6024C24.6314 15.5147 24.6602 15.4287 24.7159 15.3608C24.7715 15.2929 24.8502 15.2478 24.9369 15.2341" stroke="#BC9434" stroke-width="0.376003" stroke-miterlimit="10"/>
<path id="Vector_84" d="M24.96 15.7386C24.9867 15.8132 24.9784 15.885 24.9425 15.8979C24.9066 15.9108 24.8568 15.8592 24.8301 15.7837C24.8034 15.7083 24.8117 15.6374 24.8476 15.6245C24.8835 15.6116 24.9342 15.6631 24.96 15.7386Z" fill="#BC9434"/>
<path id="Vector_85" d="M27.7191 16.3601L26.5214 17.8884L26.7414 18.7013L28.1463 16.7458L27.7191 16.3601Z" fill="white" stroke="#BC9434" stroke-width="0.376003" stroke-linejoin="round"/>
<path id="Vector_86" d="M26.525 19.2813C26.5459 19.3504 26.585 19.4126 26.6384 19.4612C26.6917 19.5098 26.7572 19.5431 26.8279 19.5575C27.0701 19.6026 27.4936 19.4212 27.7053 18.8762C27.9171 18.3312 28.3562 16.8333 28.6131 16.4696C28.8699 16.106 29.7178 16.0922 30.157 16.1216C30.5961 16.1511 30.8981 15.7285 31.3069 15.5315C31.5463 15.4151 31.8011 15.3336 32.0637 15.2894L32.5792 14.2407L31.5048 14.2104C31.5048 14.2104 30.4452 14.7103 30.1726 15.0279C29.9001 15.3455 29.704 15.3041 29.1286 15.421C28.5532 15.5379 28.2365 15.7847 28.0091 16.4807C27.7817 17.1767 27.4798 18.9324 27.1465 19.1745C27.0613 19.2451 26.9591 19.2921 26.85 19.3109C26.741 19.3296 26.6289 19.3194 26.525 19.2813Z" fill="#BC9434" stroke="#BC9434" stroke-width="0.376003" stroke-linejoin="round"/>
<path id="Vector_87" d="M22.8047 18.1406C22.929 18.2704 22.9474 18.4545 22.8452 18.554C22.743 18.6534 22.558 18.6285 22.4337 18.4997C22.3094 18.3708 22.291 18.1857 22.3932 18.0863C22.4954 17.9869 22.6795 18.0154 22.8047 18.1406Z" fill="white" stroke="#BC9434" stroke-width="0.376003" stroke-linejoin="round"/>
<path id="Vector_88" d="M22.7062 18.3919L22.5064 18.1802C22.5064 18.1802 22.0958 17.1104 21.548 16.8241C21.0002 16.5378 20.341 16.9732 20.2039 17.3838C20.0667 17.7944 20.5528 18.4794 21.0628 18.6912C21.4724 18.8446 21.8928 18.9677 22.3204 19.0594C22.3204 19.0594 22.557 18.5043 22.7062 18.3919Z" fill="white" stroke="#BC9434" stroke-width="0.376003" stroke-linejoin="round"/>
<path id="Vector_89" d="M21.9964 18.9646L22.0176 18.9922C22.1971 19.0373 22.3204 19.064 22.3204 19.064C22.3204 19.064 22.557 18.5043 22.7062 18.392L22.5064 18.1802C22.5064 18.1802 21.9338 18.2796 21.9964 18.9646Z" fill="#BC9434" stroke="#BC9434" stroke-width="0.376003" stroke-linejoin="round"/>
<path id="Vector_90" d="M23.9629 20.0473C24.0354 20.1515 24.1191 20.2475 24.2124 20.3336C24.3118 20.4091 24.3486 20.4956 24.2243 20.4837C24.0739 20.4801 23.9309 20.4172 23.8266 20.3087C23.7014 20.1725 23.6149 20.0602 23.6149 20.0602L23.9629 20.0473Z" fill="white" stroke="#BC9434" stroke-width="0.376003" stroke-linejoin="round"/>
<path id="Vector_91" d="M24.0255 19.6726C24.0255 19.6726 24.1995 19.9589 24.1378 20.0335C24.0761 20.108 23.5026 20.1329 23.4151 20.108C23.3276 20.0832 23.3902 19.9709 23.3902 19.9709L24.0255 19.6726Z" fill="white" stroke="#BC9434" stroke-width="0.376003" stroke-linejoin="round"/>
<path id="Vector_92" d="M24.0126 19.3384C24.0126 19.3384 24.1498 19.5501 24.1249 19.6367C24.1001 19.7232 23.5155 19.9856 23.3884 19.9727C23.2614 19.9598 23.277 19.8613 23.277 19.8613L24.0126 19.3384Z" fill="white" stroke="#BC9434" stroke-width="0.376003" stroke-linejoin="round"/>
<path id="Vector_93" d="M23.7769 19.0889C23.7769 19.0889 24.0006 19.064 24.0255 19.2261C24.0504 19.3881 23.9132 19.4378 23.8266 19.5124C23.7401 19.587 23.3663 19.8613 23.2789 19.8613C23.1914 19.8613 23.0294 19.6118 23.0294 19.6118L23.7769 19.0889Z" fill="white" stroke="#BC9434" stroke-width="0.376003" stroke-linejoin="round"/>
<path id="Vector_94" d="M22.7062 18.392C22.7062 18.392 23.3157 18.6166 23.602 18.6912C23.8883 18.7658 23.9012 19.0024 23.7769 19.0889C23.6526 19.1754 23.266 19.6496 23.1536 19.6744C23.0413 19.6993 22.8774 19.575 22.8774 19.575C22.8774 19.575 22.5285 19.4001 22.4788 19.2638C22.4485 19.1814 22.3919 19.1112 22.3177 19.064C22.3177 19.064 22.2827 18.554 22.7062 18.392Z" fill="white" stroke="#BC9434" stroke-width="0.376003" stroke-linejoin="round"/>
<path id="Vector_95" d="M22.8802 19.575C22.8802 19.575 22.7808 19.3384 22.8682 19.2758C22.9557 19.2132 23.092 19.3503 23.092 19.3503C23.1118 19.2782 23.1456 19.2107 23.1914 19.1515" stroke="#BC9434" stroke-width="0.376003" stroke-linejoin="round"/>
<path id="Vector_96" d="M33.9823 20.4395C34.0152 20.618 34.0358 20.7986 34.044 20.9799C34.0338 21.106 33.8138 21.6308 33.8028 21.6621C33.7917 21.6934 33.8764 21.8195 33.9077 21.861C33.939 21.9024 34.0863 21.8821 34.2014 21.976C34.3165 22.07 34.4527 22.302 34.6212 22.2522C34.7897 22.2025 34.8974 21.976 34.8974 21.976C34.8974 21.976 35.285 21.7459 35.2951 21.6308C35.3004 21.4889 35.2827 21.3472 35.2427 21.211C35.2114 21.1189 34.6903 20.1983 34.6903 20.1983L33.9823 20.4395Z" fill="white" stroke="#BC9434" stroke-width="0.376003" stroke-linejoin="round"/>
<path id="Vector_97" d="M34.0918 21.5673C34.0918 21.5673 34.2907 21.5986 34.3754 21.9033" stroke="#BC9434" stroke-width="0.376003" stroke-linejoin="round"/>
<path id="Vector_98" d="M34.1968 21.7247L33.7457 21.9558L34.1655 22.742" stroke="#BC9434" stroke-width="1.12801" stroke-linecap="round" stroke-linejoin="round"/>
<path id="Vector_99" d="M35.2979 21.3472L35.4231 21.2947L35.8429 22.1334" stroke="#BC9434" stroke-width="1.12801" stroke-linejoin="round"/>
<path id="Vector_100" d="M37.3964 21.2918L32.8843 23.3055C32.7083 23.384 32.6293 23.5904 32.7078 23.7663L33.9186 26.4794C33.9971 26.6553 34.2034 26.7343 34.3794 26.6558L38.8916 24.6421C39.0676 24.5636 39.1466 24.3573 39.068 24.1813L37.8573 21.4683C37.7787 21.2923 37.5724 21.2133 37.3964 21.2918Z" fill="#BC9434" stroke="#BC9434" stroke-width="0.376003" stroke-linejoin="round"/>
</g>
</g>
</svg>
